<svg width="268" height="65" viewBox="0 0 268 65" fill="none" xmlns="http://www.w3.org/2000/svg">
<path fill-rule="evenodd" clip-rule="evenodd" d="M37.1989 5.6422C37.4719 3.20276 35.7425 0.999983 33.3031 0.726912C30.8636 0.435635 28.6608 2.18329 28.3878 4.62273C28.0601 7.40807 28.5152 10.7395 29.0977 14.162C30.718 14.6536 32.2836 15.3636 33.74 16.201C35.3056 12.5054 36.8348 8.84624 37.1989 5.6422ZM54.3296 16.3466C53.3647 14.0892 50.7432 13.0698 48.4858 14.0346C45.5185 15.3271 42.4419 17.8576 39.347 20.4609C40.5121 21.6078 41.6044 22.9003 42.5329 24.3021C46.0464 23.8652 49.4143 23.3372 52.0176 22.2086C54.275 21.2073 55.3126 18.5858 54.3296 16.3466ZM46.8474 4.44069C44.8813 2.9843 42.096 3.38481 40.6396 5.35093C38.4186 8.33651 36.9258 12.7967 35.3056 17.1476C35.8517 17.5117 36.3615 17.8758 36.853 18.2581C37.2171 18.5494 37.5994 18.8589 37.9817 19.1684C41.6955 16.3648 45.5549 13.6341 47.7759 10.6485C49.2322 8.6824 48.8135 5.89707 46.8474 4.44069Z" fill="white"/>
<path d="M38.4004 40.0856C37.035 41.5602 35.5786 42.9256 34.0312 44.2545C31.8649 46.1296 29.6621 47.9501 27.4229 49.6978C25.0199 48.2232 23.2904 47.4768 22.9991 47.8591C22.7443 48.205 23.7455 49.4793 25.5478 51.1359C19.5038 55.6325 13.1139 59.6012 6.25073 62.8598C5.17665 63.3696 4.04795 63.7337 2.93746 64.1342C2.64618 64.2434 2.3367 64.2434 2.20927 64.2616C0.461608 64.4618 -0.0663309 63.9885 0.00648821 62.3865C0.224946 57.3984 1.77235 52.7198 3.37437 48.0593C3.81129 46.785 4.26641 45.5107 4.73973 44.2363C7.16097 45.7109 8.89042 46.4755 9.1817 46.0932C9.49118 45.6745 8.0348 43.9997 5.59536 41.9061C7.34301 37.3913 9.29093 32.9494 11.5847 28.6895C16.1723 32.0937 20.2502 34.3329 20.7053 33.714C21.1604 33.095 17.7926 29.7999 13.1503 26.3592L12.9501 26.2136C13.7511 24.8482 14.5885 23.4829 15.4806 22.1539C16.591 20.4791 17.9564 18.9499 19.3036 17.4571C21.1058 15.4728 23.436 14.7992 26.0393 15.3818C34.3771 17.2386 40.1662 22.0265 42.897 30.2369C43.4431 31.9117 42.9516 33.5501 42.0959 35.0611C41.5134 36.0806 40.8762 37.0454 40.1662 37.9557C35.7607 34.7334 31.9377 32.6581 31.5008 33.2406C31.082 33.8232 34.1222 36.827 38.4004 40.0856Z" fill="white"/>
<path d="M92.1044 10.4025C86.3335 10.4025 82.5833 12.7145 80.3077 17.1018H80.1803V14.3711C80.1803 12.405 78.5783 10.8212 76.6122 10.8212C74.646 10.8212 73.0622 12.405 73.0622 14.3711V44.5728C73.0622 46.539 74.646 48.141 76.6122 48.141H76.9581C78.9242 48.141 80.5262 46.539 80.5262 44.5728V26.5865C80.5262 20.7064 83.8941 16.7924 89.5193 16.7924C94.9808 16.7924 97.6023 19.96 97.6023 25.6217V44.5728C97.6023 46.539 99.1861 48.141 101.152 48.141H101.498C103.464 48.141 105.048 46.539 105.048 44.5728V24.2199C105.048 15.6272 100.351 10.4025 92.1044 10.4025Z" fill="white"/>
<path d="M128.077 10.3297C117.646 10.3297 110.837 17.9393 110.837 29.6085C110.837 41.296 117.573 48.5779 128.387 48.5779C135.086 48.5779 140.62 45.6105 143.114 40.9865C144.043 39.2935 142.768 37.1999 140.839 37.1999H138.945C137.999 37.1999 137.179 37.7461 136.688 38.5653C135.25 41.0411 132.228 42.5339 128.532 42.5339C122.415 42.5339 118.356 38.274 118.356 31.8113V31.3744H142.204C143.624 31.3744 144.789 30.2093 144.789 28.7893V28.7529C144.789 17.4477 138.326 10.3297 128.077 10.3297ZM118.392 26.0768C118.811 20.3423 122.688 16.4101 128.059 16.4101C133.484 16.4101 137.161 20.2695 137.325 26.0768H118.392Z" fill="white"/>
<path d="M179.506 35.5979H177.521C176.447 35.5979 175.519 36.2715 175.118 37.2727C173.826 40.5678 170.877 42.3337 166.689 42.3337C160.7 42.3337 156.659 37.5094 156.659 29.4811C156.659 21.6348 160.645 16.6285 166.653 16.6285C170.986 16.6285 173.88 18.7767 175.064 21.8351C175.464 22.8545 176.393 23.5645 177.503 23.5645H179.487C181.217 23.5645 182.509 21.8715 181.945 20.2331C180.034 14.6078 174.572 10.3297 166.58 10.3297C156.04 10.3297 149.085 17.8664 149.085 29.4811C149.085 41.296 156.058 48.5779 166.653 48.5779C174.244 48.5779 179.888 44.8641 181.963 38.984C182.546 37.3273 181.271 35.5979 179.506 35.5979Z" fill="white"/>
<path d="M201.861 42.2791C201.734 42.2608 201.588 42.2426 201.461 42.2426C199.003 41.9514 197.856 40.4222 197.856 37.5458V16.7013H202.061C203.7 16.7013 205.01 15.3724 205.01 13.7522C205.01 12.1319 203.7 10.8212 202.061 10.8212H197.856V6.14256C197.856 5.12309 197.437 4.19465 196.764 3.52107C196.09 2.84749 195.18 2.42878 194.142 2.42878C192.103 2.42878 190.447 4.10362 190.447 6.14256V10.8212H188.226C186.605 10.8212 185.276 12.1319 185.276 13.7522C185.276 15.3724 186.605 16.7013 188.226 16.7013H190.447V38.3104C190.447 45.5195 193.323 48.3777 200.787 48.3777C200.805 48.3777 200.823 48.3777 200.823 48.3777C201.679 48.3777 202.462 48.1228 203.117 47.6677C203.135 47.6677 203.154 47.6495 203.154 47.6495C203.918 47.1033 204.428 46.2113 204.428 45.21C204.428 43.7172 203.317 42.4611 201.861 42.2791Z" fill="white"/>
<path d="M226.073 10.3297C220.248 10.3297 215.442 12.6963 212.984 16.3554C212.584 16.9744 212.383 17.648 212.383 18.3034C212.383 20.1238 213.84 21.8169 215.897 21.8169C217.098 21.8169 218.245 21.1797 218.81 20.1238C220.011 17.8664 222.578 16.4829 225.873 16.4829C230.861 16.4829 233.701 18.8313 233.701 23.0912V23.5463C233.701 24.9117 232.645 26.0404 231.28 26.1132L223.634 26.5501C214.422 27.1327 209.38 30.9193 209.38 37.4548C209.38 44.1177 214.532 48.5051 221.996 48.5051C227.075 48.5051 231.717 45.9746 233.774 41.915H233.938V44.5729C233.938 45.5559 234.338 46.4479 234.976 47.1033C235.631 47.7405 236.523 48.141 237.506 48.141C239.472 48.141 241.056 46.539 241.056 44.5729V22.5451C241.056 15.1539 235.176 10.3297 226.073 10.3297ZM233.701 34.1233C233.701 39.0204 229.514 42.5703 223.98 42.5703C219.684 42.5703 216.898 40.5132 216.898 37.3091C216.898 34.0141 219.556 32.1208 224.635 31.8113L233.701 31.1923V34.1233Z" fill="white"/>
<path d="M264.813 10.4389C260.408 10.4389 256.985 12.9511 255.802 17.1018H255.674V14.3711C255.674 12.405 254.072 10.8212 252.124 10.8212C250.158 10.8212 248.556 12.405 248.556 14.3711V44.409C248.556 45.4285 248.975 46.3751 249.649 47.0487C250.322 47.7223 251.251 48.141 252.288 48.141C254.345 48.141 256.02 46.4661 256.02 44.409V25.8765C256.02 20.6154 259.115 17.2111 264.03 17.2111C264.231 17.2111 264.449 17.2111 264.649 17.2293C266.179 17.2839 267.416 16.0278 267.416 14.4986V13.0604C267.416 11.6222 266.251 10.4389 264.813 10.4389Z" fill="white"/>
<path d="M204.428 45.21C204.428 46.2113 203.918 47.1033 203.154 47.6495C203.154 47.6495 203.135 47.6677 203.117 47.6677C202.644 47.9953 202.08 48.1774 201.461 48.1774C199.804 48.1774 198.475 46.8484 198.475 45.21C198.475 43.5716 199.804 42.2426 201.461 42.2426C201.588 42.2426 201.734 42.2608 201.861 42.279C203.317 42.4611 204.428 43.7172 204.428 45.21Z" fill="white"/>
</svg>
