<svg width="50" height="57" viewBox="0 0 50 57" fill="none" xmlns="http://www.w3.org/2000/svg">
<path fill-rule="evenodd" clip-rule="evenodd" d="M33.7268 4.64044C33.9688 2.47885 32.4363 0.526956 30.2747 0.284987C28.1131 0.0268854 26.1612 1.57549 25.9192 3.73709C25.6289 6.20518 26.0322 9.15722 26.5484 12.1899C27.984 12.6255 29.3713 13.2546 30.6619 13.9966C32.0491 10.722 33.4042 7.47956 33.7268 4.64044ZM48.9064 14.1257C48.0514 12.1254 45.7285 11.222 43.7282 12.077C41.0988 13.2223 38.3726 15.4646 35.6303 17.7713C36.6627 18.7876 37.6306 19.9329 38.4533 21.1751C41.5666 20.7879 44.5509 20.3201 46.8577 19.3199C48.858 18.4327 49.7775 16.1098 48.9064 14.1257ZM42.2764 3.57578C40.5342 2.28527 38.0661 2.64016 36.7756 4.38234C34.8076 7.02788 33.4848 10.9801 32.0491 14.8354C32.5331 15.1581 32.9848 15.4807 33.4203 15.8195C33.7429 16.0776 34.0817 16.3518 34.4204 16.626C37.7112 14.1418 41.1311 11.7221 43.0991 9.07656C44.3896 7.33438 44.0186 4.86628 42.2764 3.57578Z" fill="white"/>
<path d="M34.7915 35.1609C33.5816 36.4676 32.2911 37.6774 30.92 38.855C29.0003 40.5165 27.0485 42.1296 25.0643 43.6783C22.935 42.3716 21.4025 41.7102 21.1444 42.049C20.9185 42.3555 21.8058 43.4847 23.4028 44.9526C18.0472 48.9371 12.3851 52.4537 6.30357 55.3412C5.35182 55.7929 4.35167 56.1155 3.36766 56.4704C3.10956 56.5672 2.83533 56.5672 2.72241 56.5833C1.1738 56.7608 0.705994 56.3413 0.77052 54.9218C0.964096 50.5018 2.33526 46.3561 3.75482 42.2264C4.14197 41.0972 4.54525 39.9681 4.96466 38.8389C7.11013 40.1455 8.64261 40.823 8.90071 40.4843C9.17494 40.1132 7.88443 38.6291 5.72284 36.774C7.27144 32.7735 8.9975 28.8374 11.03 25.0627C15.0951 28.0793 18.7086 30.0634 19.1118 29.5149C19.5151 28.9665 16.5308 26.0467 12.4173 22.9979L12.2399 22.8688C12.9497 21.659 13.6917 20.4491 14.4821 19.2716C15.4662 17.7875 16.676 16.4324 17.8697 15.1097C19.4667 13.3514 21.5315 12.7545 23.8383 13.2707C31.2265 14.9161 36.3562 19.1586 38.7759 26.4339C39.2599 27.9179 38.8243 29.3698 38.0661 30.7087C37.5499 31.612 36.9853 32.467 36.3562 33.2735C32.4524 30.4183 29.0649 28.5793 28.6777 29.0955C28.3067 29.6117 31.0006 32.2734 34.7915 35.1609Z" fill="white"/>
</svg>
